<svg width="2000" height="1000" viewBox="0 0 2000 1000" fill="none" xmlns="http://www.w3.org/2000/svg">
<g clip-path="url(#clip0_218_117)">
<g opacity="0.2">
<path d="M0 546.253C445.66 628.179 685.887 736.231 824.433 824.624C939.926 898.319 937.877 928.464 1060.51 983.446C1326.65 1102.75 1836.45 1185.03 2083.53 1082.5C2205.25 1031.99 2160.22 967.988 2218.44 846.823C2270.81 737.827 2406.23 587.919 2784.29 425" stroke="#280A48" stroke-width="1.95485" stroke-miterlimit="10"/>
<path d="M0.864746 572.684C434.343 643.094 672.167 744.744 810.641 827.469C927.155 897.095 936.628 924.937 1066.89 978.973C1340.15 1092.33 1818.92 1171.25 2066.35 1075.58C2193.8 1026.31 2164.81 963.403 2233.02 842.593C2293.08 736.233 2431.26 588.889 2802.8 427.43" stroke="#280A48" stroke-width="1.95485" stroke-miterlimit="10"/>
<path d="M1.79297 599.115C423.081 658.011 658.688 753.286 796.937 830.316C914.712 895.939 935.234 921.416 1073.36 974.504C1353.14 1082.04 1802.22 1157.66 2049.27 1068.68C2182.73 1020.6 2169.27 958.882 2247.7 838.369C2315.2 734.672 2456.38 589.872 2821.43 429.882" stroke="#280A48" stroke-width="1.95485" stroke-miterlimit="10"/>
<path d="M2.66992 625.546C411.769 672.929 645.39 761.85 783.181 833.182C902.371 894.85 933.556 917.917 1079.8 970.028C1365.56 1071.9 1786.19 1144.27 2032.16 1061.76C2171.91 1014.89 2173.48 954.409 2262.35 834.138C2336.97 733.129 2481.47 590.852 2839.97 432.32" stroke="#280A48" stroke-width="1.95485" stroke-miterlimit="10"/>
<path d="M3.56104 651.977C400.51 687.839 632.38 770.417 769.44 836.011C890.252 893.824 931.755 914.455 1086.18 965.559C1377.41 1061.91 1770.76 1131.1 2014.99 1054.85C2161.31 1009.17 2177.4 949.97 2276.94 829.91C2358.45 731.596 2506.52 591.832 2858.49 434.779" stroke="#280A48" stroke-width="1.95485" stroke-miterlimit="10"/>
<path d="M4.46338 678.404C389.191 702.753 619.678 778.985 755.71 838.855C878.403 892.855 929.676 911.041 1092.62 961.082C1388.88 1052.08 1755.97 1118.16 1997.86 1047.94C2151.03 1003.47 2181.07 945.548 2291.58 825.679C2379.71 730.057 2531.61 592.812 2877.06 437.198" stroke="#280A48" stroke-width="1.95485" stroke-miterlimit="10"/>
<path d="M5.35352 704.831C377.891 717.648 607.318 787.515 741.968 841.699C866.814 891.938 927.449 907.684 1099.04 956.609C1399.96 1042.41 1741.69 1105.44 1980.73 1041.02C2140.98 997.832 2184.56 941.126 2306.21 821.451C2400.7 728.502 2556.72 593.791 2895.61 439.639" stroke="#280A48" stroke-width="1.95485" stroke-miterlimit="10"/>
<path d="M6.28174 731.266C366.63 732.58 595.382 796.01 728.263 844.547C855.584 891.054 925.131 904.406 1105.49 952.14C1410.76 1032.91 1727.94 1092.97 1963.64 1034.11C2131.22 992.265 2187.77 936.701 2320.88 817.224C2421.44 726.934 2581.77 594.786 2914.18 442.08" stroke="#280A48" stroke-width="1.95485" stroke-miterlimit="10"/>
<path d="M7.12109 757.693C355.279 747.495 583.774 804.421 714.47 847.394C844.644 890.181 922.523 901.226 1111.87 947.664C1421.23 1023.56 1714.53 1080.72 1946.45 1027.2C2121.62 986.785 2190.62 932.236 2335.46 812.993C2441.95 725.329 2606.83 595.752 2932.76 444.518" stroke="#280A48" stroke-width="1.95485" stroke-miterlimit="10"/>
<path d="M7.99902 784.113C343.976 762.401 572.631 812.713 700.716 850.23C834.047 889.282 919.857 898.086 1118.28 943.183C1431.48 1014.37 1701.45 1068.69 1929.31 1020.28C2112.23 981.411 2193.26 927.719 2350.08 808.755C2462.24 723.675 2631.9 596.724 2951.26 446.948" stroke="#280A48" stroke-width="1.95485" stroke-miterlimit="10"/>
<path d="M8.92627 810.555C332.753 777.326 561.971 820.885 687.018 853.086C823.926 888.343 917.144 895.078 1124.74 938.718C1441.64 1005.34 1688.74 1056.9 1912.21 1013.38C2103.11 976.195 2195.68 923.158 2364.75 804.535C2482.38 721.996 2657.01 597.715 2969.85 449.404" stroke="#280A48" stroke-width="1.95485" stroke-miterlimit="10"/>
<path d="M9.81738 836.982C321.414 792.236 551.685 828.871 673.277 855.929C814.154 887.283 914.339 892.161 1131.16 934.245C1451.64 996.441 1676.22 1045.31 1895.08 1006.46C2094.12 971.132 2197.83 918.513 2379.38 800.307C2502.32 720.255 2682.09 598.691 2988.41 451.837" stroke="#280A48" stroke-width="1.95485" stroke-miterlimit="10"/>
<path d="M10.6943 863.417C310.102 807.154 541.738 836.655 659.522 858.781C804.737 886.059 911.383 889.348 1137.57 929.776C1461.55 987.684 1663.84 1033.92 1877.94 999.549C2085.25 966.261 2199.72 913.788 2394 796.08C2522.1 718.463 2707.15 599.675 3006.95 454.279" stroke="#280A48" stroke-width="1.95485" stroke-miterlimit="10"/>
<path d="M11.6104 889.844C298.836 822.068 532.128 844.208 645.805 861.625C795.69 884.589 908.45 886.636 1144 925.3C1471.43 979.044 1651.61 1022.71 1860.82 992.637C2076.59 961.601 2201.42 908.956 2408.64 791.849C2541.79 716.605 2732.26 600.644 3025.53 456.727" stroke="#280A48" stroke-width="1.95485" stroke-miterlimit="10"/>
<path d="M12.4873 916.275C287.523 836.981 522.672 851.52 632.017 864.472C786.812 882.804 905.414 884.031 1150.4 920.831C1481.26 970.528 1639.38 1011.71 1843.65 985.725C2067.96 957.187 2202.88 904.022 2423.24 787.61C2561.3 714.678 2757.29 601.624 3044.05 459.146" stroke="#280A48" stroke-width="1.95485" stroke-miterlimit="10"/>
<path d="M13.3774 942.706C276.264 851.895 513.309 858.578 618.307 867.316C778.132 880.616 902.432 881.528 1156.85 916.354C1491.12 962.129 1627.21 1000.87 1826.55 978.813C2059.46 953.036 2204.22 898.981 2437.9 783.394C2580.82 712.702 2782.4 602.615 3062.63 461.598" stroke="#280A48" stroke-width="1.95485" stroke-miterlimit="10"/>
<path d="M14.2808 969.133C264.937 866.809 505.003 878.638 604.578 870.164C767.448 856.299 899.43 879.132 1163.29 911.881C1501.02 953.808 1614.93 990.186 1809.39 971.898C2050.93 949.194 2205.34 893.791 2452.51 779.163C2600.2 710.661 2807.45 603.595 3081.16 464.05" stroke="#280A48" stroke-width="1.95485" stroke-miterlimit="10"/>
<path d="M15.1826 995.564C253.658 881.727 496.584 882.924 590.847 873.011C756.064 855.638 896.426 876.838 1169.72 907.412C1511.02 945.607 1602.59 979.663 1792.31 964.986C2042.45 945.658 2206.4 888.494 2467.19 774.928C2619.64 708.546 2832.58 604.567 3099.77 466.469" stroke="#280A48" stroke-width="1.95485" stroke-miterlimit="10"/>
<path d="M16.0483 1022C242.334 896.638 486.98 886.787 577.081 875.856C745.27 855.455 893.403 874.644 1176.12 902.955C1521.01 937.473 1590.02 969.259 1775.15 958.094C2033.84 942.49 2207.27 883.081 2481.79 770.723C2638.96 706.4 2857.64 605.566 3118.3 468.933" stroke="#280A48" stroke-width="1.95485" stroke-miterlimit="10"/>
<path d="M16.9507 1048.42C231.046 911.551 473.402 884.731 563.359 878.699C740.548 866.846 890.464 872.54 1182.56 898.474C1531.14 929.407 1577.27 958.96 1758.04 951.171C2025.12 939.65 2208.09 877.491 2496.45 766.473C2658.34 704.146 2882.75 606.535 3136.88 471.352" stroke="#280A48" stroke-width="1.95485" stroke-miterlimit="10"/>
<path d="M17.8154 1074.85C219.721 926.469 462.174 890.951 549.583 881.55C729.295 862.226 887.504 870.535 1188.94 894.001C1541.29 921.419 1564.2 948.778 1740.87 944.259C2016.17 937.22 2208.8 871.824 2511.04 762.257C2677.65 701.859 2907.78 607.526 3155.4 473.804" stroke="#280A48" stroke-width="1.95485" stroke-miterlimit="10"/>
<path d="M18.7437 1101.28C208.468 941.382 450.245 897.175 535.879 884.394C717.077 857.339 884.664 868.615 1195.41 889.521C1551.63 913.485 1550.88 938.673 1723.79 937.34C2007.03 935.142 2209.52 866 2525.72 758.022C2697.06 699.518 2932.9 608.495 3174 476.234" stroke="#280A48" stroke-width="1.95485" stroke-miterlimit="10"/>
</g>
<g opacity="0.2">
<path d="M141.361 -732.333C582.302 -432.607 784.027 -155.295 885.693 51.8835C970.437 224.605 951.232 278.524 1054.31 419.768C1278.02 726.27 1788.87 1048.4 2116.6 946.535C2278.04 896.354 2264.86 765.112 2396.67 565.362C2515.25 385.675 2747.61 160.059 3252.47 -6.75158" stroke="#EA00FF" stroke-width="1.95485" stroke-miterlimit="10"/>
<path d="M127.431 -684.155C561.54 -409.43 764.243 -144.531 869.02 52.3533C957.169 218.05 951.853 271.708 1063.8 413.83C1298.64 711.97 1777.46 1017.49 2101.71 928.173C2268.73 882.175 2272.45 758.359 2414.99 562.647C2540.48 390.345 2774.41 170.311 3271.33 3.93519" stroke="#EA00FF" stroke-width="1.95485" stroke-miterlimit="10"/>
<path d="M113.57 -635.955C540.838 -386.227 744.705 -133.631 852.441 52.86C944.221 211.734 952.311 264.857 1073.38 407.928C1318.63 697.741 1766.86 987.198 2086.93 909.86C2259.84 868.072 2279.87 751.686 2433.4 559.978C2565.53 395.025 2801.32 180.623 3290.31 14.7027" stroke="#EA00FF" stroke-width="1.95485" stroke-miterlimit="10"/>
<path d="M99.6533 -587.772C520.079 -363.042 725.353 -122.63 835.795 53.3822C931.347 205.571 952.446 257.948 1082.95 402.006C1337.91 683.576 1756.88 957.498 2072.12 891.521C2251.23 854.045 2286.99 745.012 2451.8 557.286C2590.2 399.622 2828.19 190.918 3309.21 25.4154" stroke="#EA00FF" stroke-width="1.95485" stroke-miterlimit="10"/>
<path d="M85.7511 -539.585C499.382 -339.851 706.311 -111.525 819.184 53.8426C918.68 199.596 952.426 251.065 1092.43 396.075C1356.48 669.498 1747.42 928.404 2057.24 873.169C2242.87 840.081 2293.77 738.299 2470.12 554.58C2614.53 404.138 2855.01 201.196 3328.05 36.1559" stroke="#EA00FF" stroke-width="1.95485" stroke-miterlimit="10"/>
<path d="M71.8653 -491.401C478.619 -316.674 687.61 -100.315 802.58 54.3336C906.276 193.819 952.077 244.173 1101.99 390.151C1374.55 655.582 1738.54 899.927 2042.42 854.835C2234.83 826.277 2300.27 731.534 2488.51 551.886C2638.63 408.565 2881.88 211.489 3346.99 46.8437" stroke="#EA00FF" stroke-width="1.95485" stroke-miterlimit="10"/>
<path d="M57.9641 -443.22C457.886 -293.524 669.299 -89.0558 785.96 54.8206C894.126 188.223 951.53 237.337 1111.52 384.227C1392.11 641.829 1730.1 872.051 2027.59 836.49C2227.03 812.647 2306.57 724.707 2506.87 549.194C2662.45 412.877 2908.77 221.789 3365.89 57.5647" stroke="#EA00FF" stroke-width="1.95485" stroke-miterlimit="10"/>
<path d="M44.1008 -395.014C437.175 -270.295 651.473 -77.7189 769.38 55.327C882.351 182.81 950.842 230.61 1121.09 378.322C1409.25 628.282 1722.09 844.776 2012.8 818.164C2219.5 799.247 2312.56 717.78 2525.28 546.516C2686 417.077 2935.59 232.095 3384.81 68.2903" stroke="#EA00FF" stroke-width="1.95485" stroke-miterlimit="10"/>
<path d="M30.1462 -346.85C416.378 -247.129 634.056 -66.4229 752.704 55.8032C870.887 177.514 949.783 223.963 1130.58 372.377C1425.96 614.91 1714.32 818.033 1997.91 799.808C2212.09 786.061 2318.2 710.659 2543.6 543.8C2709.31 421.129 2962.43 242.351 3403.74 79.0144" stroke="#EA00FF" stroke-width="1.95485" stroke-miterlimit="10"/>
<path d="M16.2342 -298.687C395.633 -223.96 617.208 -55.1817 736.073 56.2725C859.81 172.288 948.634 217.369 1140.1 366.435C1442.33 601.727 1706.8 791.798 1983.06 781.445C2204.85 773.137 2323.62 703.372 2561.96 541.084C2732.42 425.023 2989.28 252.625 3422.59 89.6977" stroke="#EA00FF" stroke-width="1.95485" stroke-miterlimit="10"/>
<path d="M2.36864 -250.468C374.971 -200.731 600.962 -43.995 719.5 56.7948C849.279 167.151 947.365 210.999 1149.68 360.54C1458.52 588.82 1699.54 766.122 1968.27 763.14C2197.82 760.589 2328.84 695.931 2580.37 538.419C2755.37 428.82 3016.17 262.947 3441.54 100.461" stroke="#EA00FF" stroke-width="1.95485" stroke-miterlimit="10"/>
<path d="M-11.5318 -202.287C354.187 -177.568 585.225 -33.0203 702.881 57.2817C839.195 161.913 945.939 204.763 1159.21 354.615C1474.46 576.098 1692.38 740.871 1953.43 744.795C2190.85 748.367 2333.8 688.244 2598.73 535.727C2778.15 432.436 3043.03 273.229 3460.44 111.168" stroke="#EA00FF" stroke-width="1.95485" stroke-miterlimit="10"/>
<path d="M-25.4508 -154.098C333.428 -154.382 569.974 -22.295 686.243 57.7773C829.593 156.498 944.293 198.661 1168.73 348.696C1490.21 563.597 1685.27 716.047 1938.59 726.454C2183.89 736.529 2338.53 680.327 2617.09 533.03C2800.77 435.903 3069.86 283.52 3479.34 121.887" stroke="#EA00FF" stroke-width="1.95485" stroke-miterlimit="10"/>
<path d="M-39.3235 -105.909C312.722 -131.187 555.219 -11.8734 669.652 58.273C820.532 150.763 942.613 192.754 1178.28 342.769C1505.87 551.296 1678.2 691.575 1923.77 708.119C2177.05 725.147 2343.1 672.149 2635.47 530.336C2823.34 439.223 3096.75 293.798 3498.26 132.63" stroke="#EA00FF" stroke-width="1.95485" stroke-miterlimit="10"/>
<path d="M-53.2401 -57.7263C291.965 -108.008 540.77 -1.83766 652.981 58.7509C811.834 144.515 940.761 187.003 1187.79 336.844C1521.4 539.205 1671.03 667.504 1908.9 689.77C2170.1 714.22 2347.48 663.707 2653.81 527.614C2845.75 442.354 3123.57 304.074 3517.13 143.299" stroke="#EA00FF" stroke-width="1.95485" stroke-miterlimit="10"/>
<path d="M-67.1416 -9.53907C271.267 -84.8112 526.565 7.7725 636.398 59.249C803.58 137.605 938.911 181.457 1197.36 330.924C1536.91 527.339 1663.83 643.726 1894.1 671.443C2163.15 703.814 2351.77 655.028 2672.21 524.953C2868.19 445.402 3150.45 314.394 3536.07 154.051" stroke="#EA00FF" stroke-width="1.95485" stroke-miterlimit="10"/>
<path d="M-81.0283 38.6458C250.495 -61.6371 506.199 41.2938 619.79 59.7469C805.589 89.9226 936.978 176.096 1206.91 325.007C1552.41 515.622 1656.43 620.204 1879.24 653.089C2155.99 693.956 2355.92 646.004 2690.55 522.246C2890.52 448.285 3177.27 324.674 3554.94 164.785" stroke="#EA00FF" stroke-width="1.95485" stroke-miterlimit="10"/>
<path d="M-94.9171 86.8368C229.773 -38.4404 494.586 46.2018 603.183 60.2444C793.52 84.8608 934.987 170.92 1216.45 319.093C1567.96 504.162 1648.87 596.951 1864.46 634.768C2148.71 684.674 2360.06 636.769 2708.98 519.558C2912.95 451.051 3204.19 334.967 3573.91 175.484" stroke="#EA00FF" stroke-width="1.95485" stroke-miterlimit="10"/>
<path d="M-108.848 135.015C209.004 -15.2721 481.915 49.9377 586.536 60.7229C781.826 80.862 932.917 165.917 1225.96 313.19C1583.45 492.814 1640.99 573.832 1849.59 616.454C2141.08 676.007 2364.06 627.257 2727.31 516.898C2935.27 453.721 3231.01 345.283 3592.78 186.239" stroke="#EA00FF" stroke-width="1.95485" stroke-miterlimit="10"/>
<path d="M-122.733 183.2C188.276 7.91504 468.235 41.6034 569.94 61.2163C770.256 99.8956 930.891 161.108 1235.52 307.259C1599.06 481.641 1632.85 550.845 1834.79 598.102C2133.15 667.903 2368.1 617.406 2745.72 514.176C2957.72 456.216 3257.91 355.562 3611.72 196.926" stroke="#EA00FF" stroke-width="1.95485" stroke-miterlimit="10"/>
<path d="M-136.664 231.379C167.504 31.0969 452.463 49.0611 553.28 61.7056C760.558 87.7071 928.784 156.472 1245.01 301.324C1614.65 470.616 1624.29 527.959 1819.91 579.753C2124.74 660.465 2372.06 607.383 2764.04 511.49C2980.11 458.631 3284.71 365.857 3630.58 207.659" stroke="#EA00FF" stroke-width="1.95485" stroke-miterlimit="10"/>
<path d="M-150.524 279.578C146.812 54.2952 435.924 56.2866 536.703 62.2046C749.956 74.7055 926.761 152.028 1254.6 295.401C1630.41 459.752 1615.42 505.13 1805.13 561.416C2115.92 653.597 2376.13 597.074 2782.46 508.8C3002.64 460.977 3311.61 376.138 3649.54 218.375" stroke="#EA00FF" stroke-width="1.95485" stroke-miterlimit="10"/>
</g>
</g>
<defs>
<clipPath id="clip0_218_117">
<rect width="2000" height="1000" fill="white"/>
</clipPath>
</defs>
</svg>
